<svg width="90" height="90" viewBox="0 0 90 90" fill="none" xmlns="http://www.w3.org/2000/svg">
<path d="M26.4621 69.6078L35.5138 79.2533C35.7745 79.5285 36.0497 79.8036 36.3249 80.0498C41.2635 84.4816 48.7656 84.496 53.6897 80.0498C53.9649 79.8036 54.2256 79.5429 54.4863 79.2678L63.538 69.6078C66.449 67.4064 68.1725 63.9595 68.1725 60.3098V60.2664C68.1725 57.0512 65.5801 54.4139 62.3794 54.4139H58.9904C57.4552 54.4139 55.978 53.836 54.8918 52.7498L50.7932 48.6512L50.069 47.9126C48.4759 48.405 46.7669 48.6657 45.0001 48.6657C43.2332 48.6657 41.5387 48.405 39.9456 47.9126L39.2069 48.6657L36.3104 51.5623L35.1083 52.7484C34.0221 53.836 32.5449 54.4139 31.0097 54.4139H27.6207C24.4201 54.4139 21.8276 57.0512 21.8276 60.2664V60.2809C21.8276 63.945 23.5511 67.4064 26.4621 69.6078Z" fill="#4AEC55"/>
<path d="M8.11531 64.9154L17.0859 74.4653C19.9521 77.5168 23.7886 79.0665 27.6395 79.0665C30.6881 79.0665 33.7411 78.0875 36.3321 76.1265C38.8173 78.0049 41.8167 79.0317 45.0029 79.0317C48.192 79.0317 51.1914 78.0035 53.6766 76.1222C56.269 78.0875 59.3249 79.068 62.375 79.068C66.2245 79.068 70.0624 77.5198 72.9285 74.4668L81.8905 64.9169C85.0941 62.4577 87 58.5893 87 54.4864C87 50.4544 83.7544 47.1726 79.763 47.1726H76.3682C75.1719 47.1726 74.0799 46.7381 73.2921 45.9473L70.0508 42.7206C76.6173 39.7762 81.2112 33.1909 81.2112 25.5426C81.2112 15.1613 72.762 6.71499 62.3764 6.71499C59.3828 6.71499 56.4428 7.4594 53.7954 8.81499C51.3724 7.52892 48.6352 6.77147 45.7343 6.6585C45.6416 6.65416 45.5489 6.64692 45.4548 6.64402C45.3027 6.63968 45.1535 6.62085 45 6.62085C44.7017 6.62085 44.412 6.65126 44.118 6.66575C43.9428 6.67299 43.7675 6.68023 43.5923 6.69182C43.1925 6.72223 42.7986 6.76713 42.4047 6.82071C42.1831 6.85113 41.9615 6.88444 41.7414 6.92209C41.3952 6.98292 41.0534 7.05244 40.7146 7.13209C40.4365 7.19582 40.1599 7.26968 39.8847 7.34644C39.6095 7.42464 39.3372 7.5043 39.0679 7.59409C38.7203 7.70851 38.3756 7.8374 38.0338 7.97354C37.8455 8.04885 37.6558 8.12271 37.4704 8.20526C37.0562 8.38485 36.6492 8.58471 36.2466 8.79616C36.235 8.80195 36.2234 8.8063 36.2119 8.81354C33.5688 7.4594 30.6317 6.71644 27.641 6.71644C17.2539 6.71644 8.80469 15.1628 8.80469 25.544C8.80469 33.1924 13.3986 39.7777 19.9666 42.722L16.721 45.9517C15.9346 46.7395 14.844 47.1726 13.6477 47.1726H10.2515C6.25283 47.1726 3 50.4544 3 54.5414C3 58.5864 4.91028 62.4548 8.11531 64.9154ZM36.5652 72.474L27.5193 62.8183C27.4628 62.7575 27.4006 62.7024 27.3339 62.6517C24.7937 60.7371 23.2759 57.6871 23.2759 54.4733C23.2759 52.0446 25.2252 50.0691 27.6207 50.0691H31.014C32.9735 50.0691 34.7926 49.3247 36.1337 47.9807L36.3046 47.8113L43.2374 54.7326L37.9121 65.3687C37.6341 65.9263 37.7427 66.6012 38.1844 67.0415L43.9775 72.8273C44.2599 73.1083 44.6307 73.2502 45.0014 73.2502C45.3722 73.2502 45.743 73.1083 46.0254 72.8273L51.8185 67.0415C52.2602 66.5997 52.3688 65.9249 52.0908 65.3687L46.7654 54.7326L53.7041 47.8156L53.8649 47.9764C55.2074 49.3247 57.0279 50.0691 58.986 50.0691H62.3793C64.7748 50.0691 66.7241 52.0446 66.7241 54.5081C66.7241 57.6972 65.2063 60.7458 62.6661 62.659C62.5994 62.7082 62.5372 62.7647 62.4807 62.8255L53.4348 72.4754C51.2232 74.8346 48.2282 76.1323 45.0029 76.1323C41.7747 76.1337 38.7782 74.8346 36.5652 72.474ZM39.0534 10.6818C39.372 10.5529 39.695 10.4342 40.0237 10.3255C40.2279 10.2589 40.4321 10.1981 40.6392 10.1402C40.8768 10.0721 41.1172 10.0113 41.359 9.95478C41.627 9.8925 41.8934 9.83313 42.1643 9.78533C42.3381 9.75347 42.5162 9.7303 42.6929 9.70423C43.0173 9.65788 43.3417 9.61154 43.669 9.58402C43.727 9.57968 43.7849 9.57968 43.8428 9.57533C45.5909 9.45223 47.3534 9.61154 49.0566 10.0591C49.0653 10.062 49.0754 10.0634 49.0841 10.0663C49.5085 10.1793 49.9285 10.3096 50.3441 10.4573C50.3702 10.466 50.3948 10.4762 50.4209 10.4849C50.825 10.6311 51.2247 10.7933 51.6186 10.9729C51.6519 10.9888 51.6852 11.0048 51.7185 11.0207C52.1067 11.2017 52.489 11.3958 52.8641 11.6087C52.8902 11.6232 52.9148 11.6406 52.9409 11.6551C53.723 12.1055 54.4761 12.624 55.1872 13.2148L52.2414 16.1592V13.8622C52.2414 13.2771 51.8894 12.7485 51.3478 12.524C51.1682 12.4502 50.9799 12.414 50.7931 12.414C50.4165 12.414 50.0458 12.5617 49.7692 12.8383L46.4483 16.1592V13.8622C46.4483 13.2771 46.0963 12.7485 45.5547 12.524C45.0145 12.301 44.3903 12.4226 43.9761 12.8383L40.6552 16.1592V13.8622C40.6552 13.2771 40.3032 12.7485 39.7616 12.524C39.2214 12.301 38.5986 12.4226 38.183 12.8383L34.8621 16.1592V13.1743C36.0192 12.2155 37.3154 11.4219 38.7116 10.818C38.8246 10.7702 38.939 10.7267 39.0534 10.6818ZM31.9655 16.3272V19.6553C31.9655 20.2404 32.3174 20.7691 32.8591 20.9935C33.4008 21.2166 34.0235 21.0949 34.4377 20.6793L37.7586 17.3584V19.6553C37.7586 20.2404 38.1106 20.7691 38.6522 20.9935C39.1953 21.2166 39.8166 21.0949 40.2308 20.6793L43.5517 17.3584V19.6553C43.5517 20.2404 43.9037 20.7691 44.4453 20.9935C44.9884 21.2166 45.6097 21.0949 46.0239 20.6793L49.3448 17.3584V19.6553C49.3448 20.2404 49.6968 20.7691 50.2384 20.9935C50.418 21.0674 50.6063 21.1036 50.7931 21.1036C51.1697 21.1036 51.5404 20.9559 51.817 20.6793L57.2307 15.2656C59.5378 18.0333 60.931 21.5917 60.931 25.4731C60.931 34.2713 53.7838 41.4287 45 41.4287C36.2162 41.4287 29.069 34.2713 29.069 25.4731C29.069 22.0696 30.1465 18.9196 31.9655 16.3272ZM40.351 43.7184C41.8413 44.0993 43.3924 44.3238 45 44.3238C46.6105 44.3238 48.1659 44.0979 49.6591 43.7155C49.6997 43.7691 49.7199 43.8329 49.7692 43.8806L51.0219 45.1334L45 47.1349L38.9911 45.1348L40.2294 43.9009C40.283 43.8473 40.3076 43.7778 40.351 43.7184ZM45 57.6798L49.0306 65.7308L45 69.7555L40.9694 65.7308L45 57.6798ZM45.0014 52.3994L41.6777 49.0814L44.5438 50.0344C44.8407 50.1328 45.1608 50.1328 45.4577 50.0344L48.331 49.08L45.0014 52.3994ZM67.1499 43.9212L71.2442 47.9966C72.5766 49.3334 74.3971 50.0691 76.3682 50.0691H79.763C82.1555 50.0691 84.1034 52.0504 84.1034 54.5414C84.1034 57.7276 82.5871 60.769 80.0483 62.6793C79.9817 62.7285 79.9194 62.7835 79.8614 62.8444L70.8155 72.4812C66.8342 76.7217 60.5168 77.3228 55.8606 74.1221L64.5112 64.8951C67.7133 62.4331 69.6207 58.5589 69.6207 54.4733C69.6207 50.4486 66.3722 47.1726 62.3793 47.1726H58.986C57.8028 47.1726 56.7122 46.7308 55.9128 45.93L52.6599 42.6771C52.9959 42.5265 53.3276 42.3672 53.6534 42.1977C56.3371 43.6026 59.3263 44.3731 62.3764 44.3731C63.9898 44.3731 65.5481 44.1471 67.0442 43.7633C67.0833 43.814 67.1036 43.8749 67.1499 43.9212ZM62.3764 9.61299C71.1646 9.61299 78.3147 16.7602 78.3147 25.544C78.3147 34.3278 71.1646 41.4751 62.3764 41.4751C60.3619 41.4751 58.3763 41.0811 56.521 40.3497C60.9571 36.8985 63.8276 31.5211 63.8276 25.4731C63.8276 19.4815 61.0121 14.1461 56.6485 10.6905C58.4675 9.99099 60.4097 9.61299 62.3764 9.61299ZM11.6998 25.544C11.6998 16.7602 18.8514 9.61299 27.6395 9.61299C29.599 9.61299 31.531 9.98954 33.3428 10.6833C33.2588 10.7499 33.1748 10.818 33.0923 10.886C33.0604 10.9121 33.0286 10.9367 32.9967 10.9628C32.8229 11.1076 32.6404 11.2365 32.471 11.3871C32.4478 11.4074 32.4275 11.4262 32.4058 11.448C32.3884 11.4624 32.3725 11.4769 32.3551 11.49L32.358 11.4928C32.3044 11.5464 32.2812 11.5986 32.2392 11.6522C28.5186 15.0991 26.1724 20.0102 26.1724 25.4731C26.1724 31.5225 29.0458 36.9014 33.4833 40.3541C31.631 41.0826 29.6483 41.4765 27.6381 41.4765C18.8499 41.4751 11.6998 34.3278 11.6998 25.544ZM10.2515 50.0691H13.6477C15.6203 50.0691 17.4393 49.3334 18.7659 48.001L22.8646 43.9212C22.9109 43.8749 22.9312 43.814 22.9703 43.7619C24.4663 44.1457 26.0247 44.3716 27.6395 44.3716C30.6852 44.3716 33.673 43.6026 36.3538 42.1992C36.6797 42.3686 37.0113 42.5294 37.3488 42.68L34.0858 45.93C33.2878 46.7308 32.1972 47.1726 31.014 47.1726H27.6207C23.6278 47.1726 20.3793 50.4486 20.3793 54.4922C20.3793 58.5488 22.2867 62.4258 25.4874 64.8879L34.1466 74.1293C29.4904 77.3242 23.1788 76.7232 19.1975 72.4826L10.1429 62.8458C10.0864 62.785 10.0241 62.73 9.95752 62.6807C7.41579 60.7661 5.89655 57.7233 5.89655 54.4864C5.89655 52.0504 7.85028 50.0691 10.2515 50.0691Z" fill="#1D1F21"/>
<path d="M15.0108 61.231C15.2932 61.5134 15.664 61.6554 16.0347 61.6554C16.4055 61.6554 16.7762 61.5134 17.0586 61.231C17.6249 60.6647 17.6249 59.7494 17.0586 59.1831L11.2655 53.39C10.6993 52.8238 9.78395 52.8238 9.21768 53.39C8.6514 53.9563 8.6514 54.8716 9.21768 55.4379L15.0108 61.231Z" fill="#1D1F21"/>
<path d="M73.9657 61.6554C74.3365 61.6554 74.7072 61.5134 74.9897 61.231L80.7828 55.4379C81.349 54.8716 81.349 53.9563 80.7828 53.39C80.2165 52.8238 79.3012 52.8238 78.7349 53.39L72.9418 59.1831C72.3755 59.7494 72.3755 60.6647 72.9418 61.231C73.2242 61.5134 73.595 61.6554 73.9657 61.6554Z" fill="#1D1F21"/>
</svg>
