<svg width="90" height="90" viewBox="0 0 90 90" fill="none" xmlns="http://www.w3.org/2000/svg">
<path d="M12.6065 82.9999H77.3934C78.7639 82.9999 79.8852 81.8786 79.8852 80.5081V68.0491H10.1147V80.5081C10.1147 81.8786 11.2361 82.9999 12.6065 82.9999Z" fill="#4AEC55"/>
<path d="M12.6064 79.2623H77.3932C79.454 79.2623 81.131 77.5853 81.131 75.5246V63.0656V10.7377C81.131 8.67698 79.454 7 77.3932 7H12.6064C10.5456 7 8.86865 8.67698 8.86865 10.7377V63.0656V75.5246C8.86865 77.5853 10.5456 79.2623 12.6064 79.2623ZM78.6391 75.5246C78.6391 76.2123 78.081 76.7705 77.3932 76.7705H12.6064C11.9186 76.7705 11.3605 76.2123 11.3605 75.5246V64.3115H22.1549H67.8434H78.6391V75.5246ZM31.2949 33.1639C31.2949 25.6075 37.4434 19.459 44.9998 19.459C52.5562 19.459 58.7047 25.6075 58.7047 33.1639C58.7047 40.7203 52.5562 46.8689 44.9998 46.8689C37.4434 46.8689 31.2949 40.7203 31.2949 33.1639ZM65.8462 61.8197H24.1534C28.2848 54.1923 36.271 49.3619 44.9998 49.3619C53.7286 49.3619 61.7148 54.1923 65.8462 61.8197ZM11.3605 10.7377C11.3605 10.05 11.9186 9.4918 12.6064 9.4918H77.3932C78.081 9.4918 78.6391 10.05 78.6391 10.7377V61.8197H68.6221C65.2831 54.8439 59.1159 49.7917 51.8722 47.8083C57.3716 45.2168 61.1965 39.6351 61.1965 33.1639C61.1965 24.2333 53.9304 16.9672 44.9998 16.9672C36.0692 16.9672 28.8031 24.2333 28.8031 33.1639C28.8031 39.6351 32.628 45.2168 38.1274 47.8083C30.8825 49.7917 24.7153 54.8439 21.3763 61.8197H11.3605V10.7377Z" fill="#1D1F21"/>
</svg>
