<svg width="90" height="90" viewBox="0 0 90 90" fill="none" xmlns="http://www.w3.org/2000/svg">
<g clip-path="url(#clip0_108_1580)">
<path d="M62.7048 13.2786C62.7048 10.0194 60.0623 7.37695 56.8031 7.37695H33.1966C29.9374 7.37695 27.2949 10.0194 27.2949 13.2786V48.6884C27.2949 55.2068 32.5798 60.4917 39.0982 60.4917H50.9015C57.4198 60.4917 62.7048 55.2068 62.7048 48.6884V13.2786Z" fill="#4AEC55"/>
<path d="M56.8031 84.0982C56.8031 80.839 54.1607 78.1965 50.9015 78.1965H39.0982C35.839 78.1965 33.1966 80.839 33.1966 84.0982C29.9374 84.0982 27.2949 87.049 27.2949 89.9998H62.7048C62.7048 87.049 60.0623 84.0982 56.8031 84.0982Z" fill="#4AEC55"/>
<path d="M56.8035 0H33.1969C29.1292 0 25.8199 3.30934 25.8199 7.37705V11.8033H21.3937C17.3259 11.8033 14.0166 15.1126 14.0166 19.1803V30.9836C14.0166 35.0513 17.3259 38.3607 21.3937 38.3607H25.8199V42.7869C25.8199 49.6107 30.9941 55.2423 37.6232 55.9785V70.9687C34.693 71.5662 32.4017 73.9077 31.8573 76.857C28.4284 77.49 25.8199 80.4895 25.8199 84.0984C25.8199 84.9143 26.4794 85.5738 27.2953 85.5738H62.7051C63.521 85.5738 64.1805 84.9143 64.1805 84.0984C64.1805 80.4895 61.572 77.49 58.1432 76.857C57.5987 73.9092 55.3074 71.5662 52.3773 70.9687V55.9785C59.0063 55.2423 64.1805 49.6107 64.1805 42.7869V38.3607H68.6068C72.6745 38.3607 75.9838 35.0513 75.9838 30.9836V19.1803C75.9838 15.1126 72.6745 11.8033 68.6068 11.8033H64.1805V7.37705C64.1805 3.30934 60.8712 0 56.8035 0ZM33.1969 2.95082H56.8035C58.7245 2.95082 60.3474 4.18869 60.9582 5.90164H29.0422C29.653 4.18869 31.2759 2.95082 33.1969 2.95082ZM21.3937 35.4098C18.9533 35.4098 16.9674 33.4239 16.9674 30.9836V19.1803C16.9674 16.74 18.9533 14.7541 21.3937 14.7541H25.8199V35.4098H21.3937ZM49.4264 70.8197H40.574V56.0656H49.4264V70.8197ZM60.9774 82.6229H29.023C29.6323 80.9056 31.273 79.6721 33.1969 79.6721H56.8035C58.7274 79.6721 60.3681 80.9056 60.9774 82.6229ZM55.0758 76.7213H34.9246C35.534 75.0039 37.1746 73.7705 39.0986 73.7705H50.9018C52.8258 73.7705 54.4664 75.0039 55.0758 76.7213ZM61.2297 42.7869C61.2297 48.4805 56.5955 53.1148 50.9018 53.1148H39.0986C33.405 53.1148 28.7707 48.4805 28.7707 42.7869V8.85246H61.2297V42.7869ZM68.6068 14.7541C71.0471 14.7541 73.033 16.74 73.033 19.1803V30.9836C73.033 33.4239 71.0471 35.4098 68.6068 35.4098H64.1805V14.7541H68.6068Z" fill="#1D1F21"/>
<path d="M39.0987 47.2132C34.9336 47.2132 34.6814 43.5188 34.6725 42.787V36.8853C34.6725 36.0694 34.013 35.4099 33.1971 35.4099C32.3812 35.4099 31.7217 36.0694 31.7217 36.8853V42.787C31.7217 45.3379 33.2635 50.164 39.0987 50.164C39.9146 50.164 40.5741 49.5045 40.5741 48.6886C40.5741 47.8727 39.9146 47.2132 39.0987 47.2132Z" fill="#1D1F21"/>
<path d="M56.8035 11.8032C55.9876 11.8032 55.3281 12.4627 55.3281 13.2786V36.8852C55.3281 37.7011 55.9876 38.3606 56.8035 38.3606C57.6194 38.3606 58.2789 37.7011 58.2789 36.8852V13.2786C58.2789 12.4627 57.6194 11.8032 56.8035 11.8032Z" fill="#1D1F21"/>
</g>
<defs>
<clipPath id="clip0_108_1580">
<rect width="90" height="90" fill="white"/>
</clipPath>
</defs>
</svg>
