<svg width="45" height="45" viewBox="0 0 45 45" fill="none" xmlns="http://www.w3.org/2000/svg">
<path d="M22.5049 3H22.4951C11.7433 3 3 11.7457 3 22.5C3 26.7656 4.37475 30.7193 6.71231 33.9294L4.28213 41.1737L11.7774 38.7776C14.8609 40.8203 18.5391 42 22.5049 42C33.2567 42 42 33.2518 42 22.5C42 11.7482 33.2567 3 22.5049 3ZM33.8514 30.5364C33.381 31.8649 31.5139 32.9666 30.0246 33.2884C29.0057 33.5053 27.6748 33.6784 23.1947 31.821C17.4641 29.4469 13.7738 23.6237 13.4861 23.2459C13.2107 22.8681 11.1705 20.1624 11.1705 17.3642C11.1705 14.5659 12.5916 13.2034 13.1644 12.6184C13.6348 12.1382 14.4124 11.9188 15.1582 11.9188C15.3996 11.9188 15.6165 11.931 15.8115 11.9407C16.3843 11.9651 16.6719 11.9993 17.0497 12.9036C17.5202 14.037 18.6658 16.8353 18.8023 17.1229C18.9412 17.4105 19.0802 17.8005 18.8852 18.1783C18.7024 18.5683 18.5415 18.7414 18.2539 19.0729C17.9662 19.4044 17.6932 19.6579 17.4056 20.0138C17.1424 20.3233 16.845 20.6548 17.1765 21.2276C17.508 21.7883 18.6536 23.6578 20.3404 25.1593C22.5171 27.0971 24.2818 27.7163 24.9131 27.9795C25.3836 28.1745 25.9442 28.1282 26.2879 27.7626C26.7242 27.2921 27.2629 26.5121 27.8113 25.7443C28.2013 25.1934 28.6937 25.1252 29.2104 25.3202C29.7369 25.503 32.523 26.8802 33.0958 27.1654C33.6686 27.453 34.0464 27.5895 34.1854 27.8308C34.3219 28.0721 34.3219 29.2056 33.8514 30.5364Z" fill="white"/>
</svg>
