<svg width="60" height="60" viewBox="0 0 60 60" fill="none" xmlns="http://www.w3.org/2000/svg">
<path d="M25.8613 9.31033H21.7234C19.4382 9.31033 17.5854 11.1631 17.5854 13.4483V17.5862L21.7234 13.4483C21.7234 13.4483 21.8092 17.5862 25.8613 17.5862C29.9134 17.5862 29.9992 13.4483 29.9992 13.4483C29.9992 13.4483 30.0851 9.31033 25.8613 9.31033Z" fill="#4AEC55"/>
<path d="M29.999 9.31034V13.4483C29.999 13.4483 30.0632 17.5862 34.137 17.5862C38.339 17.5862 38.2749 13.4483 38.2749 13.4483L42.4128 17.5862V9.31034C42.4128 5.17241 38.2749 5.17241 38.2749 5.17241C38.2749 5.17241 38.2097 5.17241 34.137 5.17241C30.0632 5.17241 29.999 9.31034 29.999 9.31034Z" fill="#4AEC55"/>
<path d="M21.7231 58.9655L29.999 54.8276L21.7231 50.6897V58.9655Z" fill="#4AEC55"/>
<path d="M38.2749 58.9655V50.6897L29.999 54.8276L38.2749 58.9655Z" fill="#4AEC55"/>
<path d="M34.1313 10.3448C34.1334 10.3448 34.1354 10.3448 34.1375 10.3448C34.7044 10.3448 35.1658 9.88447 35.172 9.31758C35.1782 8.79827 35.3551 6.20689 38.2754 6.20689C38.8475 6.20689 39.3099 5.74448 39.3099 5.17241C39.3099 4.60034 38.8475 4.13792 38.2754 4.13792C34.1841 4.13792 33.103 7.52172 33.103 9.31137C33.103 9.88034 33.5623 10.3448 34.1313 10.3448Z" fill="#1D1F21"/>
<path d="M13.4478 45.5172C13.242 45.5172 13.0392 45.5297 12.8458 45.5524C11.3158 45.7293 10.0071 46.6283 9.25507 48.0186C8.46162 49.4855 8.43058 51.2462 9.17231 52.7286L11.3789 57.1407C12.2623 58.9045 14.0333 60 16.0051 60H43.9951C45.9658 60 47.7378 58.9045 48.6213 57.1407L50.8278 52.7276C51.5695 51.2452 51.5385 49.4845 50.7451 48.0176C49.993 46.6272 48.6844 45.7283 47.1595 45.5514C46.9599 45.5297 46.7571 45.5172 46.5513 45.5172H38.7037L35.4637 42.2772C40.1613 40.1772 43.4478 35.4693 43.4478 30V26.7838C45.252 26.4062 47.5858 24.9972 47.5858 21.7252C47.5858 18.4531 45.252 17.0959 43.4478 16.6914V13.4483V5.17241C43.4478 1.08103 40.064 0 38.2754 0H34.1375C30.1961 0 29.0458 3.22655 28.9713 5.05034C28.1344 4.45345 27.0978 4.13793 25.8616 4.13793H21.7237C18.8716 4.13793 16.5513 6.45828 16.5513 9.31034V13.4483V16.6914C14.7471 17.0948 12.4133 18.4521 12.4133 21.7241C12.4133 24.9962 14.7471 26.3534 16.5513 26.7569V30C16.5513 35.4693 19.8378 40.1772 24.5354 42.2772L21.2954 45.5172H13.4478ZM22.7582 48.2255L27.6864 50.6897L22.7582 53.1538V48.2255ZM13.2295 56.2159L11.023 51.8028C10.5823 50.9234 10.603 49.8776 11.0758 49.0034C11.502 48.2141 12.2333 47.7062 13.0889 47.6069C13.2078 47.5924 13.3268 47.5862 13.4478 47.5862H20.6892V54.8276C20.6892 55.1865 20.8754 55.5186 21.1806 55.7079C21.3461 55.8103 21.5344 55.8621 21.7237 55.8621C21.882 55.8621 22.0402 55.8259 22.1861 55.7534L28.9651 52.3634V57.931H16.0051C14.8227 57.931 13.7592 57.2731 13.2295 56.2159ZM46.9154 47.6079C47.7658 47.7072 48.4971 48.2152 48.9233 49.0045C49.3961 49.8786 49.4168 50.9245 48.9761 51.8038L46.7695 56.2169C46.2399 57.2731 45.1764 57.931 43.994 57.931H31.034V52.3634L37.813 55.7524C37.9589 55.8259 38.1171 55.8621 38.2754 55.8621C38.4647 55.8621 38.653 55.8103 38.8185 55.7079C39.1237 55.5186 39.3099 55.1865 39.3099 54.8276V47.5862H46.5513C46.6723 47.5862 46.7913 47.5924 46.9154 47.6079ZM32.3127 50.6897L37.2409 48.2255V53.1538L32.3127 50.6897ZM45.5168 21.7241C45.5168 23.5479 44.3644 24.301 43.4478 24.6124V18.8255C44.3644 19.1297 45.5168 19.8786 45.5168 21.7241ZM31.034 5.18897C31.0392 4.86931 31.1685 2.06897 34.1375 2.06897H38.2692C38.7885 2.07517 41.3789 2.25207 41.3789 5.17241V10.951L39.0068 8.57897C38.7089 8.28103 38.2589 8.1931 37.872 8.35759C37.484 8.52207 37.2347 8.90483 37.2409 9.3269C37.2409 9.34138 37.2378 10.739 36.3595 11.6317C35.8402 12.1572 35.114 12.4138 34.1375 12.4138C31.2627 12.4138 31.0485 9.81 31.034 9.31034V5.18897ZM18.6202 9.31034C18.6202 7.59931 20.0127 6.2069 21.7237 6.2069H25.8616C26.8278 6.2069 27.5758 6.46862 28.0868 6.98379C28.9671 7.87138 28.9651 9.28138 28.9651 9.28862C28.9589 9.60828 28.8151 12.4138 25.8616 12.4138C22.9413 12.4138 22.7685 9.60414 22.7582 9.28862C22.7489 8.87483 22.4944 8.50448 22.1095 8.35034C21.9844 8.29965 21.854 8.27586 21.7237 8.27586C21.4547 8.27586 21.1899 8.38138 20.9923 8.57897L18.6202 10.951V9.31034ZM14.4823 21.7241C14.4823 19.9003 15.6337 19.1472 16.5513 18.8359V24.6228C15.6347 24.3186 14.4823 23.5697 14.4823 21.7241ZM18.6202 30V25.8621V17.5862V13.8766L21.1216 11.3752C21.7475 12.93 23.1409 14.4828 25.8616 14.4828C27.9182 14.4828 29.2133 13.5931 29.9944 12.4883C30.7744 13.5931 32.0706 14.4828 34.1375 14.4828C35.6747 14.4828 36.9192 14.0121 37.8337 13.0821C38.3468 12.5607 38.6809 11.9628 38.8992 11.3969L41.3789 13.8766V17.5862V25.8621V30C41.3789 36.2741 36.2737 41.3793 29.9995 41.3793C23.7254 41.3793 18.6202 36.2741 18.6202 30ZM29.9995 43.4483C31.1478 43.4483 32.2558 43.2879 33.3202 43.0159C33.3513 43.0583 33.3678 43.1069 33.4061 43.1452L36.5292 46.2683L29.9995 49.5331L23.4699 46.2683L26.593 43.1452C26.6313 43.1069 26.6478 43.0583 26.6789 43.0159C27.7433 43.2879 28.8513 43.4483 29.9995 43.4483Z" fill="#1D1F21"/>
</svg>
