<svg width="60" height="60" viewBox="0 0 60 60" fill="none" xmlns="http://www.w3.org/2000/svg">
<g clip-path="url(#clip0_75_1452)">
<path d="M10.936 21.5976C11.9475 18.8248 15.0153 17.3972 17.788 18.4087L28.9634 22.4859C31.7362 23.4974 33.1638 26.5652 32.1523 29.3379V29.3379L10.936 21.5976V21.5976Z" fill="#4AEC55"/>
<path d="M31.6389 33.1253C31.5778 30.2324 33.8735 27.8377 36.7664 27.7767L47.7308 27.5453C50.6237 27.4843 53.0184 29.7799 53.0794 32.6729V32.6729L31.6389 33.1253V33.1253Z" fill="#4AEC55"/>
<path d="M54.2381 30.9353L50.2439 26.9411C50.3147 26.688 50.3534 26.4216 50.3534 26.1462V20.0137C50.3534 19.4312 49.8812 18.959 49.2988 18.959H42.2381L34.8018 3.59526C34.6479 3.27727 34.345 3.05748 33.9951 3.0097C33.645 2.96203 33.2942 3.0926 33.0609 3.35775L25.544 11.8964L18.5391 9.34678C18.2763 9.25112 17.9863 9.26367 17.7327 9.382C17.4792 9.50023 17.2829 9.71423 17.1874 9.97716L15.0899 15.7398C14.9451 16.1374 14.889 16.5524 14.9186 16.9621L13.6619 17.606C10.8681 19.0374 8.73819 21.4502 7.66462 24.4L3.67928 35.3498C2.9005 37.4893 3.00154 39.804 3.96373 41.8676C4.92592 43.9312 6.63409 45.4963 8.77362 46.275L20.1887 50.4298C20.791 50.6491 21.4065 50.7537 22.0112 50.7537C24.0003 50.7536 25.8722 49.6217 26.7671 47.7128L28.7846 43.409V48.4761C28.7846 53.1761 32.6085 57 37.3085 57H45.8449C50.5449 57 54.3687 53.1761 54.3687 48.4761V44.1494C55.878 42.8778 56.8392 40.9754 56.8392 38.8521V37.2156C56.8393 34.8433 55.9155 32.6128 54.2381 30.9353ZM41.5775 21.0687C41.5791 21.0687 41.5806 21.0684 41.5821 21.0684H48.2441V22.9745H42.3596C41.7772 22.9745 41.3049 23.4467 41.3049 24.0292C41.3049 24.6117 41.7772 25.0838 42.3596 25.0838H48.2441V26.1463C48.2441 26.6116 47.8657 26.99 47.4005 26.99H35.7531C35.2879 26.99 34.9095 26.6116 34.9095 26.1463V21.0684H41.5738C41.5751 21.0684 41.5762 21.0687 41.5775 21.0687ZM33.5949 5.94352L39.8947 18.9591H33.8549C33.2725 18.9591 32.8002 19.4313 32.8002 20.0138V25.8642L31.2102 22.4542C31.3646 22.2381 31.4912 22.0001 31.5845 21.7437L33.6819 15.9809C33.8813 15.4336 33.599 14.8283 33.0515 14.6291L27.6723 12.6711L33.5949 5.94352ZM17.0718 16.4613L17.5761 15.0756L23.9972 17.4127C24.1162 17.456 24.238 17.4766 24.3578 17.4766C24.7886 17.4766 25.1931 17.2106 25.3489 16.7823C25.5482 16.2349 25.266 15.6298 24.7185 15.4305L18.2974 13.0935L18.8085 11.6898L31.3389 16.2504L29.6022 21.0221C29.5252 21.2338 29.3703 21.4029 29.1661 21.4981C28.9617 21.5934 28.733 21.6036 28.5209 21.5263L17.576 17.5426C17.3644 17.4656 17.1953 17.3106 17.1001 17.1064C17.0048 16.9021 16.9948 16.6732 17.0718 16.4613ZM28.7847 38.4396L24.8573 46.8174C24.1571 48.3111 22.4601 49.0114 20.9102 48.4477L9.49514 44.2929C7.88505 43.7069 6.5996 42.529 5.87556 40.9762C5.15152 39.4234 5.07537 37.6814 5.66146 36.0712L9.64669 25.1217C10.5377 22.6738 12.3052 20.6715 14.6236 19.4836L15.8125 18.8745C16.1064 19.1586 16.4589 19.381 16.8546 19.525L27.7995 23.5087C28.1291 23.6286 28.4706 23.6884 28.8113 23.6884C29.0179 23.6884 29.2241 23.6659 29.4271 23.6222L31.1668 27.3531C31.3872 27.8258 31.5699 28.3182 31.7121 28.8225C29.8202 31.0596 28.7847 33.8787 28.7847 36.824V38.4396ZM54.7301 38.8521C54.73 41.5085 52.569 43.6694 49.9128 43.6694H48.1915C46.7274 43.6694 45.5364 42.4784 45.5364 41.0142C45.5364 39.5502 46.7274 38.3592 48.1915 38.3592H50.0893C50.6717 38.3592 51.144 37.8869 51.144 37.3045C51.144 36.7221 50.6717 36.2498 50.0893 36.2498H48.1915C45.5644 36.2498 43.427 38.3871 43.427 41.0142C43.427 43.6414 45.5644 45.7788 48.1915 45.7788H49.9128C50.7363 45.7788 51.5263 45.6337 52.2595 45.3688V48.4761C52.2595 52.0131 49.382 54.8906 45.845 54.8906H37.3086C33.7716 54.8906 30.8941 52.0131 30.8941 48.4761V36.8237C30.8941 34.2187 31.8702 31.7326 33.6427 29.8233L34.5526 28.8431C34.9197 29.0072 35.3258 29.0991 35.7531 29.0991H47.4005C47.9758 29.0991 48.5127 28.9332 48.9672 28.6475L52.7465 32.4268C54.0256 33.7058 54.7301 35.4065 54.7301 37.2154V38.8521Z" fill="#1D1F21"/>
<path d="M38.7769 23.2838C38.5797 23.0866 38.3086 22.9748 38.0312 22.9748C37.7539 22.9748 37.4818 23.0866 37.2856 23.2838C37.0884 23.48 36.9766 23.751 36.9766 24.0295C36.9766 24.3069 37.0884 24.579 37.2856 24.7751C37.4818 24.9713 37.7539 25.0842 38.0312 25.0842C38.3086 25.0842 38.5797 24.9713 38.7769 24.7751C38.973 24.579 39.0859 24.3069 39.0859 24.0295C39.0859 23.751 38.9731 23.48 38.7769 23.2838Z" fill="#1D1F21"/>
<path d="M16.3251 42.2891L16.2941 42.2779C15.7457 42.0794 15.1414 42.3629 14.9432 42.9104C14.7448 43.4581 15.0281 44.063 15.5757 44.2613L15.6067 44.2725C15.7254 44.3154 15.8465 44.3359 15.9657 44.3359C16.3972 44.3359 16.8022 44.0691 16.9574 43.64C17.1559 43.0923 16.8728 42.4874 16.3251 42.2891Z" fill="#1D1F21"/>
<path d="M13.2749 40.425L11.6511 39.8339C11.0999 39.6333 10.66 39.23 10.412 38.6985C10.1642 38.1669 10.1381 37.5707 10.3388 37.0195C10.5382 36.4722 10.2559 35.8668 9.70855 35.6677C9.16127 35.4684 8.55588 35.7506 8.35676 36.298C7.96336 37.3786 8.0143 38.5478 8.5003 39.59C8.9862 40.6322 9.84893 41.4228 10.9297 41.816L12.5535 42.407C12.6725 42.4504 12.7942 42.471 12.9141 42.471C13.3449 42.471 13.7494 42.205 13.9051 41.7767C14.1045 41.2294 13.8222 40.6242 13.2749 40.425Z" fill="#4AEC55"/>
<path d="M12.562 40.9195L10.9382 40.3285C10.387 40.1279 9.94709 39.7246 9.69913 39.193C9.45128 38.6614 9.42523 38.0652 9.62594 37.514C9.82528 36.9668 9.54304 36.3614 8.99566 36.1622C8.44838 35.9629 7.84299 36.2451 7.64387 36.7925C7.25047 37.8732 7.30141 39.0424 7.78741 40.0845C8.27331 41.1268 9.13604 41.9173 10.2168 42.3105L11.8406 42.9016C11.9596 42.9449 12.0814 42.9655 12.2012 42.9655C12.632 42.9655 13.0365 42.6995 13.1923 42.2712C13.3916 41.7239 13.1094 41.1187 12.562 40.9195Z" fill="#1D1F21"/>
</g>
<defs>
<clipPath id="clip0_75_1452">
<rect width="54" height="54" fill="white" transform="translate(3 3)"/>
</clipPath>
</defs>
</svg>
