<svg width="45" height="45" viewBox="0 0 45 45" fill="none" xmlns="http://www.w3.org/2000/svg">
<path d="M44.7614 36.7057C44.707 36.5502 44.6562 36.4212 44.609 36.3179C43.8282 34.4558 42.3362 32.1701 40.1339 29.4603L40.0874 29.3983L40.0641 29.3679L40.0405 29.3367H40.0169C39.0173 28.0749 38.3844 27.2264 38.1193 26.7921C37.6343 25.9646 37.5257 25.1271 37.7907 24.2785C37.978 23.6373 38.6815 22.2832 39.8994 20.2144C40.5401 19.118 41.0475 18.2392 41.4222 17.5772C44.1246 12.8195 45.2962 9.7792 44.9368 8.45523L44.7972 8.14583C44.7034 7.95956 44.4613 7.78916 44.0713 7.63376C43.6803 7.47868 43.1807 7.45304 42.5713 7.55639L35.8238 7.61811C35.7145 7.56682 35.5584 7.5716 35.355 7.63376C35.1519 7.69592 35.0503 7.72711 35.0503 7.72711L34.9329 7.80481L34.8397 7.89816C34.7616 7.95989 34.6756 8.06846 34.5818 8.22364C34.4885 8.37829 34.4105 8.55977 34.3481 8.76658C33.6135 11.2694 32.7782 13.5965 31.8408 15.7476C31.2629 17.0302 30.7321 18.1419 30.2473 19.0831C29.7632 20.024 29.3571 20.7172 29.0294 21.1616C28.7011 21.6064 28.4049 21.9627 28.1388 22.2319C27.8732 22.5012 27.6704 22.615 27.53 22.5734C27.3892 22.5317 27.2567 22.4904 27.1312 22.4491C26.9127 22.2629 26.7369 22.0096 26.6044 21.689C26.4713 21.3684 26.3817 20.9649 26.3348 20.4788C26.2882 19.9924 26.2606 19.574 26.2527 19.2222C26.2454 18.8708 26.2488 18.3739 26.2646 17.7327C26.2809 17.0912 26.2882 16.6572 26.2882 16.4296C26.2882 15.6435 26.2998 14.7903 26.323 13.8698C26.3466 12.9493 26.3657 12.22 26.3818 11.6827C26.3977 11.1449 26.4051 10.5759 26.4051 9.97601C26.4051 9.37613 26.3775 8.90568 26.323 8.56422C26.2692 8.22321 26.1865 7.89219 26.0776 7.57127C25.9681 7.25069 25.8077 7.00269 25.5973 6.82664C25.3865 6.65081 25.1244 6.51127 24.8125 6.40759C23.9845 6.15949 22.9303 6.02528 21.6492 6.00441C18.7441 5.96312 16.8774 6.21155 16.0495 6.74937C15.7215 6.97661 15.4247 7.28709 15.1593 7.67984C14.8781 8.13507 14.8388 8.3835 15.0419 8.42436C15.9792 8.6103 16.6427 9.0551 17.0333 9.75833L17.174 10.131C17.2835 10.3998 17.3928 10.8758 17.5022 11.5583C17.6114 12.2408 17.6819 12.9957 17.7129 13.8227C17.7909 15.333 17.7909 16.6258 17.7129 17.7012C17.6347 18.7771 17.5609 19.6146 17.4904 20.2145C17.4199 20.8144 17.3145 21.3005 17.174 21.6727C17.0333 22.045 16.9396 22.2726 16.8927 22.3551C16.8458 22.4377 16.8068 22.4898 16.7758 22.5102C16.5727 22.6132 16.3616 22.6657 16.1431 22.6657C15.9242 22.6657 15.6588 22.5208 15.3465 22.231C15.0342 21.9413 14.7102 21.5434 14.3743 21.0365C14.0384 20.5295 13.6596 19.8211 13.2377 18.9111C12.8161 18.001 12.3787 16.9255 11.9257 15.6844L11.551 14.7844C11.3167 14.2054 10.9966 13.3623 10.5905 12.2559C10.1841 11.149 9.82493 10.0784 9.51268 9.04413C9.38786 8.60976 9.20035 8.27907 8.95047 8.0515L8.8332 7.95815C8.75524 7.87556 8.63009 7.78786 8.45842 7.6944C8.28649 7.60105 8.1071 7.53411 7.91951 7.49292L1.49979 7.55465C0.843773 7.55465 0.398663 7.75145 0.16429 8.14453L0.0704923 8.33047C0.0236342 8.43403 0 8.59944 0 8.82711C0 9.05467 0.0468581 9.33396 0.140656 9.66466C1.07782 12.5815 2.09696 15.3945 3.19808 18.1042C4.29921 20.8138 5.25606 22.9965 6.06808 24.6503C6.88026 26.3053 7.70811 27.8673 8.55164 29.3355C9.39517 30.8042 9.95352 31.7454 10.2267 32.1589C10.5002 32.5732 10.7151 32.8829 10.8712 33.0897L11.4571 33.8342C11.832 34.3308 12.3824 34.9254 13.1088 35.6182C13.8353 36.3115 14.6396 36.9939 15.5221 37.6667C16.4048 38.3384 17.4316 38.8866 18.6032 39.3105C19.7747 39.7349 20.9149 39.9052 22.024 39.823H24.7184C25.2649 39.7606 25.6789 39.533 25.9603 39.1402L26.0535 38.9847C26.1162 38.8613 26.1749 38.6695 26.229 38.4114C26.2839 38.1528 26.3111 37.868 26.3111 37.5582C26.2951 36.6689 26.3462 35.8674 26.4631 35.1539C26.5799 34.4405 26.713 33.9027 26.8618 33.5405C27.0106 33.1786 27.1785 32.8732 27.3654 32.6257C27.5526 32.3776 27.6861 32.2273 27.7644 32.1756C27.8421 32.1235 27.9043 32.0882 27.9511 32.067C28.326 31.9016 28.7672 32.0618 29.2753 32.5483C29.783 33.0344 30.2592 33.6346 30.7047 34.3479C31.1499 35.0619 31.6848 35.863 32.3094 36.7522C32.9345 37.6419 33.481 38.3031 33.9495 38.7382L34.4179 39.1105C34.7307 39.3589 35.1368 39.5865 35.6368 39.7933C36.1358 40 36.573 40.0517 36.9485 39.9483L42.9462 39.8245C43.5394 39.8245 44.001 39.6944 44.3285 39.4363C44.6566 39.1777 44.8515 38.8929 44.9143 38.5831C44.977 38.2729 44.9804 37.921 44.9262 37.5276C44.8707 37.1352 44.8159 36.8608 44.7614 36.7057Z" fill="white"/>
</svg>
