<svg width="59" height="52" viewBox="0 0 59 52" fill="none" xmlns="http://www.w3.org/2000/svg">
<g clip-path="url(#clip0_68_930)">
<path d="M1.7038 42.924H2.9638C3.1798 42.924 3.3798 42.908 3.5638 42.876C3.7558 42.844 3.9198 42.788 4.0558 42.708C4.1998 42.628 4.3118 42.524 4.3918 42.396C4.4718 42.268 4.5118 42.108 4.5118 41.916C4.5118 41.644 4.4038 41.44 4.1878 41.304C3.9718 41.168 3.6678 41.1 3.2758 41.1C2.8358 41.1 2.4518 41.152 2.1238 41.256C1.7958 41.352 1.4838 41.484 1.1878 41.652L0.587805 40.176C0.907805 39.976 1.2918 39.816 1.7398 39.696C2.1958 39.568 2.7118 39.504 3.2878 39.504C3.7358 39.504 4.1518 39.556 4.5358 39.66C4.9198 39.756 5.2518 39.904 5.5318 40.104C5.8118 40.296 6.0278 40.544 6.1798 40.848C6.3398 41.144 6.4198 41.492 6.4198 41.892C6.4198 42.196 6.3358 42.5 6.1678 42.804C6.0078 43.1 5.7598 43.352 5.4238 43.56C5.6078 43.656 5.7798 43.768 5.9398 43.896C6.1078 44.024 6.2518 44.172 6.3718 44.34C6.4998 44.508 6.5998 44.7 6.6718 44.916C6.7438 45.124 6.7798 45.36 6.7798 45.624C6.7798 46.512 6.4638 47.16 5.8318 47.568C5.2078 47.968 4.3358 48.168 3.2158 48.168C2.9358 48.168 2.6558 48.148 2.3758 48.108C2.1038 48.068 1.8398 48.02 1.5838 47.964C1.3358 47.9 1.0998 47.828 0.875805 47.748C0.659805 47.668 0.467805 47.584 0.299805 47.496L0.851805 46.032C0.963805 46.08 1.0998 46.136 1.2598 46.2C1.4278 46.256 1.6118 46.312 1.8118 46.368C2.0118 46.424 2.2198 46.472 2.4358 46.512C2.6518 46.552 2.8678 46.572 3.0838 46.572C3.6118 46.572 4.0358 46.496 4.3558 46.344C4.6838 46.192 4.8478 45.928 4.8478 45.552C4.8478 45.32 4.7958 45.132 4.6918 44.988C4.5878 44.844 4.4438 44.736 4.2598 44.664C4.0838 44.584 3.8718 44.532 3.6238 44.508C3.3838 44.476 3.1198 44.46 2.8318 44.46H1.7038V42.924ZM13.7348 48C13.6468 47.712 13.5468 47.416 13.4348 47.112C13.3308 46.808 13.2268 46.504 13.1228 46.2H9.88283C9.77883 46.504 9.67083 46.808 9.55883 47.112C9.45483 47.416 9.35883 47.712 9.27083 48H7.32683C7.63883 47.104 7.93483 46.276 8.21483 45.516C8.49483 44.756 8.76683 44.04 9.03083 43.368C9.30283 42.696 9.56683 42.06 9.82283 41.46C10.0868 40.852 10.3588 40.26 10.6388 39.684H12.4268C12.6988 40.26 12.9668 40.852 13.2308 41.46C13.4948 42.06 13.7588 42.696 14.0228 43.368C14.2948 44.04 14.5708 44.756 14.8508 45.516C15.1308 46.276 15.4268 47.104 15.7388 48H13.7348ZM11.4908 41.568C11.4508 41.688 11.3908 41.852 11.3108 42.06C11.2308 42.268 11.1388 42.508 11.0348 42.78C10.9308 43.052 10.8148 43.352 10.6868 43.68C10.5668 44.008 10.4428 44.352 10.3148 44.712H12.6788C12.5508 44.352 12.4268 44.008 12.3068 43.68C12.1868 43.352 12.0708 43.052 11.9588 42.78C11.8548 42.508 11.7628 42.268 11.6828 42.06C11.6028 41.852 11.5388 41.688 11.4908 41.568ZM21.7233 48C21.5553 47.728 21.3553 47.436 21.1233 47.124C20.8993 46.804 20.6513 46.488 20.3793 46.176C20.1153 45.856 19.8393 45.552 19.5513 45.264C19.2633 44.968 18.9753 44.708 18.6873 44.484V48H16.8153V39.684H18.6873V42.828C19.1753 42.316 19.6633 41.784 20.1513 41.232C20.6473 40.672 21.1073 40.156 21.5313 39.684H23.7513C23.1833 40.356 22.6113 41.004 22.0353 41.628C21.4673 42.252 20.8673 42.88 20.2353 43.512C20.8993 44.064 21.5393 44.72 22.1553 45.48C22.7793 46.24 23.3753 47.08 23.9433 48H21.7233ZM27.5144 39.588C28.7544 39.588 29.7064 39.808 30.3704 40.248C31.0344 40.68 31.3664 41.392 31.3664 42.384C31.3664 43.384 31.0304 44.108 30.3584 44.556C29.6864 44.996 28.7264 45.216 27.4784 45.216H26.8904V48H25.0184V39.804C25.4264 39.724 25.8584 39.668 26.3144 39.636C26.7704 39.604 27.1704 39.588 27.5144 39.588ZM27.6344 41.184C27.4984 41.184 27.3624 41.188 27.2264 41.196C27.0984 41.204 26.9864 41.212 26.8904 41.22V43.62H27.4784C28.1264 43.62 28.6144 43.532 28.9424 43.356C29.2704 43.18 29.4344 42.852 29.4344 42.372C29.4344 42.14 29.3904 41.948 29.3024 41.796C29.2224 41.644 29.1024 41.524 28.9424 41.436C28.7904 41.34 28.6024 41.276 28.3784 41.244C28.1544 41.204 27.9064 41.184 27.6344 41.184ZM39.0291 45.276C39.0291 45.74 38.9371 46.148 38.7531 46.5C38.5771 46.852 38.3211 47.148 37.9851 47.388C37.6571 47.628 37.2531 47.808 36.7731 47.928C36.3011 48.048 35.7731 48.108 35.1891 48.108C34.8531 48.108 34.4691 48.084 34.0371 48.036C33.6131 47.988 33.1811 47.912 32.7411 47.808V39.684H34.6131V42.444C34.7011 42.436 34.7811 42.432 34.8531 42.432C34.9331 42.432 35.0171 42.432 35.1051 42.432C36.4091 42.432 37.3891 42.664 38.0451 43.128C38.7011 43.592 39.0291 44.308 39.0291 45.276ZM40.0731 39.684H41.9451V48H40.0731V39.684ZM34.9851 44.016C34.9451 44.016 34.8891 44.016 34.8171 44.016C34.7451 44.016 34.6771 44.02 34.6131 44.028V46.512C34.7011 46.52 34.8011 46.524 34.9131 46.524C35.0251 46.524 35.1611 46.524 35.3211 46.524C35.5691 46.524 35.8011 46.504 36.0171 46.464C36.2331 46.424 36.4211 46.356 36.5811 46.26C36.7491 46.164 36.8771 46.036 36.9651 45.876C37.0611 45.716 37.1091 45.516 37.1091 45.276C37.1091 44.788 36.9251 44.456 36.5571 44.28C36.1971 44.104 35.6731 44.016 34.9851 44.016ZM50.0301 39.684V41.28H47.5221V48H45.6501V41.28H43.1421V39.684H50.0301ZM57.6412 45.276C57.6412 46.204 57.2972 46.908 56.6092 47.388C55.9212 47.868 54.9612 48.108 53.7292 48.108C53.3852 48.108 52.9892 48.084 52.5412 48.036C52.1012 47.988 51.6652 47.912 51.2332 47.808V39.684H53.1052V42.444C53.2092 42.436 53.3012 42.432 53.3812 42.432C53.4692 42.432 53.5572 42.432 53.6452 42.432C54.9972 42.432 56.0012 42.664 56.6572 43.128C57.3132 43.592 57.6412 44.308 57.6412 45.276ZM53.4772 44.016C53.4372 44.016 53.3812 44.016 53.3092 44.016C53.2372 44.016 53.1692 44.02 53.1052 44.028V46.512C53.1932 46.52 53.2932 46.524 53.4052 46.524C53.5172 46.524 53.6532 46.524 53.8132 46.524C54.0612 46.524 54.3012 46.504 54.5332 46.464C54.7652 46.424 54.9692 46.356 55.1452 46.26C55.3212 46.164 55.4612 46.036 55.5652 45.876C55.6692 45.716 55.7212 45.516 55.7212 45.276C55.7212 45.028 55.6692 44.824 55.5652 44.664C55.4612 44.504 55.3092 44.376 55.1092 44.28C54.9172 44.184 54.6812 44.116 54.4012 44.076C54.1292 44.036 53.8212 44.016 53.4772 44.016Z" fill="#1D1F21"/>
<path d="M37.9203 0.707071L16.7071 21.9203C16.3166 22.3108 16.3166 22.944 16.7071 23.3345L17.4142 24.0416C17.8047 24.4321 18.4379 24.4321 18.8284 24.0416L40.0416 2.82839C40.4322 2.43787 40.4322 1.8047 40.0416 1.41418L39.3345 0.707071C38.944 0.316546 38.3108 0.316547 37.9203 0.707071Z" fill="#1D1F21"/>
<path d="M39.9203 21.9203L18.7071 0.707107C18.3166 0.316582 17.6834 0.316582 17.2929 0.707107L16.5858 1.41421C16.1953 1.80474 16.1953 2.4379 16.5858 2.82843L37.799 24.0416C38.1895 24.4322 38.8227 24.4322 39.2132 24.0416L39.9203 23.3345C40.3108 22.944 40.3108 22.3108 39.9203 21.9203Z" fill="#1D1F21"/>
</g>
<defs>
<clipPath id="clip0_68_930">
<rect width="59" height="52" fill="white"/>
</clipPath>
</defs>
</svg>
