<svg width="26" height="26" viewBox="0 0 26 26" fill="none" xmlns="http://www.w3.org/2000/svg">
<path fill-rule="evenodd" clip-rule="evenodd" d="M16.1039 14.5199C15.6118 14.721 15.2975 15.4913 14.9786 15.8849C14.8151 16.0865 14.6201 16.118 14.3687 16.0169C12.5218 15.2811 11.106 14.0486 10.0868 12.349C9.91416 12.0854 9.94514 11.8772 10.1533 11.6325C10.4611 11.2699 10.848 10.858 10.9313 10.3695C11.1162 9.28891 9.70342 5.93684 7.83771 7.4557C2.46912 11.8305 16.7935 23.4335 19.3788 17.158C20.11 15.3791 16.9194 14.1857 16.1039 14.5199ZM13.0001 23.7291C11.1014 23.7291 9.23318 23.2243 7.59752 22.2686C7.33498 22.1147 7.0176 22.0741 6.72408 22.1538L3.1699 23.1293L4.40795 20.4019C4.57654 20.0307 4.53338 19.5985 4.29521 19.2684C2.97084 17.4327 2.27057 15.2654 2.27057 13C2.27057 7.08348 7.08361 2.27043 13.0001 2.27043C18.9167 2.27043 23.7292 7.08348 23.7292 13C23.7292 18.916 18.9162 23.7291 13.0001 23.7291ZM13.0001 0C5.83185 0 0.000135907 5.83172 0.000135907 13C0.000135907 15.5218 0.716152 17.9436 2.07658 20.0454L0.101698 24.3948C-0.0806063 24.7965 -0.0140828 25.2667 0.271308 25.6014C0.490683 25.8578 0.808066 26 1.1356 26C1.86787 26 5.8608 24.7452 6.87693 24.4664C8.75533 25.4714 10.8622 26 13.0001 26C20.1679 26 26.0001 20.1678 26.0001 13C26.0001 5.83172 20.1679 0 13.0001 0Z" fill="#39AE41"/>
</svg>
