<svg width="40" height="47" viewBox="0 0 40 47" fill="none" xmlns="http://www.w3.org/2000/svg">
<path d="M3.16821 34.684C3.31221 34.948 3.47621 35.276 3.66021 35.668C3.85221 36.052 4.04821 36.472 4.24821 36.928C4.45621 37.376 4.66022 37.836 4.86022 38.308C5.06022 38.78 5.24821 39.224 5.42421 39.64C5.60021 39.224 5.78821 38.78 5.98821 38.308C6.18821 37.836 6.38821 37.376 6.58821 36.928C6.79621 36.472 6.99222 36.052 7.17622 35.668C7.36822 35.276 7.53621 34.948 7.68021 34.684H9.38421C9.46421 35.236 9.53621 35.856 9.60021 36.544C9.67221 37.224 9.73221 37.936 9.78021 38.68C9.83621 39.416 9.88421 40.156 9.92421 40.9C9.97221 41.644 10.0122 42.344 10.0442 43H8.22021C8.19621 42.192 8.16421 41.312 8.12421 40.36C8.08421 39.408 8.02421 38.448 7.94421 37.48C7.80021 37.816 7.64022 38.188 7.46422 38.596C7.28822 39.004 7.11221 39.412 6.93621 39.82C6.76821 40.228 6.60421 40.62 6.44421 40.996C6.28421 41.364 6.14821 41.68 6.03621 41.944H4.72822C4.61622 41.68 4.48021 41.364 4.32021 40.996C4.16021 40.62 3.99221 40.228 3.81621 39.82C3.64821 39.412 3.47621 39.004 3.30021 38.596C3.12421 38.188 2.96421 37.816 2.82021 37.48C2.74021 38.448 2.68021 39.408 2.64021 40.36C2.60021 41.312 2.56821 42.192 2.54421 43H0.720215C0.752215 42.344 0.788215 41.644 0.828215 40.9C0.876215 40.156 0.924215 39.416 0.972215 38.68C1.02821 37.936 1.08821 37.224 1.15221 36.544C1.22421 35.856 1.30021 35.236 1.38021 34.684H3.16821ZM11.7297 43V34.684H17.3457V36.256H13.6017V37.888H16.9257V39.424H13.6017V41.428H17.6217V43H11.7297ZM24.0231 34.684H25.8951V43H24.0231V39.472H20.8791V43H19.0071V34.684H20.8791V37.864H24.0231V34.684ZM35.2116 34.48C35.7556 34.48 36.2716 34.576 36.7596 34.768C37.2476 34.952 37.6716 35.228 38.0316 35.596C38.3996 35.956 38.6916 36.408 38.9076 36.952C39.1236 37.496 39.2316 38.124 39.2316 38.836C39.2316 39.548 39.1236 40.176 38.9076 40.72C38.6996 41.256 38.4116 41.708 38.0436 42.076C37.6756 42.436 37.2476 42.708 36.7596 42.892C36.2796 43.076 35.7636 43.168 35.2116 43.168C34.7076 43.168 34.2276 43.092 33.7716 42.94C33.3156 42.78 32.9076 42.544 32.5476 42.232C32.1876 41.92 31.8916 41.532 31.6596 41.068C31.4276 40.604 31.2796 40.068 31.2156 39.46H29.6916V43H27.8196V34.684H29.6916V37.876H31.2516C31.3476 37.324 31.5156 36.836 31.7556 36.412C32.0036 35.988 32.3036 35.632 32.6556 35.344C33.0076 35.056 33.3996 34.84 33.8316 34.696C34.2716 34.552 34.7316 34.48 35.2116 34.48ZM35.2116 41.536C35.8756 41.536 36.3876 41.296 36.7476 40.816C37.1156 40.336 37.2996 39.676 37.2996 38.836C37.2996 37.996 37.1156 37.332 36.7476 36.844C36.3876 36.356 35.8756 36.112 35.2116 36.112C34.5476 36.112 34.0276 36.356 33.6516 36.844C33.2836 37.332 33.0996 37.996 33.0996 38.836C33.0996 39.676 33.2836 40.336 33.6516 40.816C34.0276 41.296 34.5476 41.536 35.2116 41.536Z" fill="#1D1F21"/>
<path d="M35 0H5C4.44772 0 4 0.447715 4 1V2C4 2.55228 4.44772 3 5 3H35C35.5523 3 36 2.55228 36 2V1C36 0.447715 35.5523 0 35 0Z" fill="#1D1F21"/>
<path d="M35 9H5C4.44772 9 4 9.44772 4 10V11C4 11.5523 4.44772 12 5 12H35C35.5523 12 36 11.5523 36 11V10C36 9.44772 35.5523 9 35 9Z" fill="#1D1F21"/>
<path d="M27 18H5C4.44772 18 4 18.4477 4 19V20C4 20.5523 4.44772 21 5 21H27C27.5523 21 28 20.5523 28 20V19C28 18.4477 27.5523 18 27 18Z" fill="#1D1F21"/>
</svg>
