<svg width="90" height="90" viewBox="0 0 90 90" fill="none" xmlns="http://www.w3.org/2000/svg">
<g clip-path="url(#clip0_108_1576)">
<path d="M63.6208 32.5861V20.1723C63.6208 13.3448 58.0346 7.75854 51.207 7.75854C48.8794 7.75854 46.8622 7.75854 45.0001 9.31027C44.069 8.53441 43.138 8.06889 42.0518 7.91372C40.9656 7.75854 39.8794 7.75854 38.7932 7.75854C31.9656 7.75854 26.3794 13.3448 26.3794 20.1723V32.5861H45.0001C45.0001 32.5861 51.207 32.5861 51.207 26.3792C51.207 28.5516 51.207 32.5861 57.4139 32.5861C63.6208 32.5861 63.6208 32.5861 63.6208 32.5861Z" fill="#4AEC55"/>
<path d="M50.1205 56.3276C47.3274 59.1207 42.6722 59.1207 39.8791 56.3276C39.2585 55.7069 38.3274 55.7069 37.7067 56.3276C37.086 56.9483 37.086 57.8793 37.7067 58.5C39.724 60.5172 42.3619 61.4483 44.9998 61.4483C47.6378 61.4483 50.2757 60.5172 52.2929 58.5C52.9136 57.8793 52.9136 56.9483 52.2929 56.3276C51.6722 55.7069 50.7412 55.7069 50.1205 56.3276Z" fill="#1D1F21"/>
<path d="M44.9997 52.7587C45.9307 52.7587 46.5514 52.138 46.5514 51.207C46.5514 50.2759 45.9307 49.6552 44.9997 49.6552C44.379 49.6552 44.0687 49.1897 44.0687 49.0346C44.0687 48.8794 43.9135 48.4139 44.2239 47.9484C45.6204 46.5518 46.5514 44.5346 46.5514 42.5173V38.7932C46.5514 37.8621 45.9307 37.2415 44.9997 37.2415C44.0687 37.2415 43.448 37.8621 43.448 38.7932V42.3621C43.448 43.6035 42.9825 44.8449 42.0514 45.6208C40.8101 46.8621 40.4997 48.569 41.1204 50.1208C41.8963 51.8277 43.2928 52.7587 44.9997 52.7587Z" fill="#1D1F21"/>
<path d="M37.2412 38.7931C38.0982 38.7931 38.7929 38.0984 38.7929 37.2414C38.7929 36.3844 38.0982 35.6897 37.2412 35.6897C36.3842 35.6897 35.6895 36.3844 35.6895 37.2414C35.6895 38.0984 36.3842 38.7931 37.2412 38.7931Z" fill="#1D1F21"/>
<path d="M40.3445 32.5861C40.3445 31.6551 39.7238 31.0344 38.7928 31.0344H32.5859C31.6549 31.0344 31.0342 31.6551 31.0342 32.5861C31.0342 33.5172 31.6549 34.1379 32.5859 34.1379H38.7928C39.7238 34.1379 40.3445 33.5172 40.3445 32.5861Z" fill="#1D1F21"/>
<path d="M55.8618 38.7931C56.7188 38.7931 57.4135 38.0984 57.4135 37.2414C57.4135 36.3844 56.7188 35.6897 55.8618 35.6897C55.0048 35.6897 54.3101 36.3844 54.3101 37.2414C54.3101 38.0984 55.0048 38.7931 55.8618 38.7931Z" fill="#1D1F21"/>
<path d="M57.4134 31.0344H51.2065C50.2755 31.0344 49.6548 31.6551 49.6548 32.5861C49.6548 33.5172 50.2755 34.1379 51.2065 34.1379H57.4134C58.3444 34.1379 58.9651 33.5172 58.9651 32.5861C58.9651 31.6551 58.3444 31.0344 57.4134 31.0344Z" fill="#1D1F21"/>
<path d="M12.4136 82.2413V88.4482C12.4136 89.3792 13.0343 89.9999 13.9653 89.9999H32.586C33.517 89.9999 34.1377 89.3792 34.1377 88.4482C34.1377 87.5171 33.517 86.8965 32.586 86.8965H15.517V82.2413C15.517 81.4654 15.8274 77.5861 20.1722 77.5861H32.586C33.517 77.5861 34.1377 76.9654 34.1377 76.0344C34.1377 75.1034 33.517 74.4827 32.586 74.4827H20.1722C13.9653 74.4827 12.4136 79.6034 12.4136 82.2413Z" fill="#1D1F21"/>
<path d="M57.4135 86.8965C56.4825 86.8965 55.8618 87.5171 55.8618 88.4482C55.8618 89.3792 56.4825 89.9999 57.4135 89.9999H76.0342C76.9652 89.9999 77.5859 89.3792 77.5859 88.4482V82.2413C77.5859 79.9137 76.81 78.0516 75.4135 76.6551C73.2411 74.4827 69.9825 74.4827 69.8273 74.4827H57.4135C56.4825 74.4827 55.8618 75.1034 55.8618 76.0344V81.6206L54.4652 83.0171C51.9825 85.4999 48.5687 86.8965 44.9997 86.8965C41.4307 86.8965 38.0169 85.4999 35.5342 83.0171L33.6721 81.1551C33.0514 80.5344 32.1204 80.5344 31.4997 81.1551C30.879 81.7758 30.879 82.7068 31.4997 83.3275L33.3618 85.1896C36.4652 88.293 40.6549 89.9999 44.9997 89.9999C49.3445 89.9999 53.5342 88.293 56.6376 85.1896L58.4997 83.3275C58.81 83.0171 58.9652 82.7068 58.9652 82.2413V77.5861H69.8273C69.9825 77.5861 71.9997 77.5861 73.2411 78.8275C74.0169 79.6034 74.4825 80.6896 74.4825 82.2413V86.8965H57.4135Z" fill="#1D1F21"/>
<path d="M65.1723 13.9655C65.1723 6.2069 58.9654 0 51.2068 0C49.3447 0 47.0172 0 44.9999 1.24138C44.2241 0.775862 43.293 0.465517 42.362 0.155172C41.1206 0 40.0344 0 38.793 0C31.0344 0 24.8275 6.36207 24.8275 13.9655V26.3793V31.0345H23.2758C20.6378 31.0345 18.6206 33.0517 18.6206 35.6897C18.6206 38.3276 20.6378 40.3448 23.2758 40.3448H24.8275V51.2069C24.8275 59.5862 29.4827 66.7241 37.2413 69.8276V76.0345C37.2413 80.3793 40.6551 83.7931 44.9999 83.7931C49.3447 83.7931 52.7585 80.3793 52.7585 76.0345V69.8276C60.0516 66.7241 65.1723 59.5862 65.1723 51.2069V40.3448H66.7241C69.362 40.3448 71.3792 38.3276 71.3792 35.6897C71.3792 33.0517 69.362 31.0345 66.7241 31.0345H65.1723V26.3793V13.9655ZM27.931 13.9655C27.931 7.91379 32.7413 3.10345 38.793 3.10345C39.8792 3.10345 40.8103 3.10345 41.7413 3.25862C42.6723 3.41379 43.293 3.72414 43.9137 4.34483C44.5344 4.81034 45.3103 4.81034 45.931 4.34483C47.3275 3.10345 48.8792 3.10345 51.2068 3.10345C57.2585 3.10345 62.0689 8.06897 62.0689 13.9655V24.8276H57.4137C52.7585 24.8276 52.7585 22.3448 52.7585 20.1724C52.7585 19.2414 52.1378 18.6207 51.2068 18.6207C50.2758 18.6207 49.6551 19.2414 49.6551 20.1724C49.6551 24.5172 45.7758 24.8276 44.9999 24.8276H27.931V13.9655ZM23.2758 37.2414C22.3447 37.2414 21.7241 36.6207 21.7241 35.6897C21.7241 34.7586 22.3447 34.1379 23.2758 34.1379H24.8275V37.2414H23.2758ZM49.6551 76.0345C49.6551 78.6724 47.6378 80.6897 44.9999 80.6897C42.362 80.6897 40.3447 78.6724 40.3447 76.0345V70.7586C41.8965 71.069 43.4482 71.3793 44.9999 71.3793C46.5516 71.3793 48.1034 71.2241 49.6551 70.7586V76.0345ZM62.0689 51.2069C62.0689 60.6724 54.4654 68.2759 44.9999 68.2759C35.5344 68.2759 27.931 60.6724 27.931 51.2069V27.931H44.9999C46.7068 27.931 49.3447 27.3103 51.0516 25.2931C52.1379 26.6897 53.9999 27.931 57.4137 27.931H62.0689V51.2069ZM66.7241 34.1379C67.6551 34.1379 68.2758 34.7586 68.2758 35.6897C68.2758 36.6207 67.6551 37.2414 66.7241 37.2414H65.1723V34.1379H66.7241Z" fill="#1D1F21"/>
<path d="M46.0859 6.6723C45.4652 6.05161 44.5342 6.05161 43.9135 6.6723L31.4997 19.0861C30.879 19.7068 30.879 20.6378 31.4997 21.2585C31.81 21.5689 32.2756 21.724 32.5859 21.724C32.8962 21.724 33.3618 21.5689 33.6721 21.2585L46.0859 8.84472C46.7066 8.22403 46.7066 7.29299 46.0859 6.6723Z" fill="#1D1F21"/>
<path d="M32.5859 15.5171C33.0514 15.5171 33.3618 15.362 33.6721 15.0516L39.879 8.84472C40.4997 8.22403 40.4997 7.29299 39.879 6.6723C39.2583 6.05161 38.3273 6.05161 37.7066 6.6723L31.4997 12.8792C30.879 13.4999 30.879 14.4309 31.4997 15.0516C31.81 15.362 32.1204 15.5171 32.5859 15.5171Z" fill="#1D1F21"/>
<path d="M46.086 12.8793C45.4654 12.2586 44.5343 12.2586 43.9136 12.8793L37.7067 19.0862C37.086 19.7069 37.086 20.638 37.7067 21.2586C38.0171 21.569 38.4826 21.7242 38.7929 21.7242C39.1033 21.7242 39.5688 21.569 39.8791 21.2586L46.086 15.0517C46.7067 14.4311 46.7067 13.5 46.086 12.8793Z" fill="#1D1F21"/>
</g>
<defs>
<clipPath id="clip0_108_1576">
<rect width="90" height="90" fill="white"/>
</clipPath>
</defs>
</svg>
