<svg width="90" height="90" viewBox="0 0 90 90" fill="none" xmlns="http://www.w3.org/2000/svg">
<path d="M47.8338 81.4542C49.8948 83.5152 53.1151 83.5152 55.1762 81.4542L78.3626 58.2678C80.4236 56.2068 80.4236 52.9864 78.3626 50.9254L42.6812 14.8576C41.6507 13.9559 40.3626 13.4407 38.9456 13.4407H15.3728C12.5389 13.4407 10.2202 15.7593 10.2202 18.5932V42.1661C10.2202 43.583 10.7355 44.8712 11.766 45.7729L47.8338 81.4542ZM23.1016 18.5932C27.3524 18.5932 30.8304 22.0712 30.8304 26.322C30.8304 30.5729 27.3524 34.0508 23.1016 34.0508C18.8507 34.0508 15.3728 30.5729 15.3728 26.322C15.3728 22.0712 18.8507 18.5932 23.1016 18.5932Z" fill="#4AEC55"/>
<path d="M14.2135 44.8712C14.0847 46.4169 14.0847 47.9627 14.0847 49.5085C14.0847 50.6678 14.2135 76.5593 20.5253 76.5593C24.7762 76.5593 26.1931 65.3525 26.7084 57.3661L46.9321 77.3322C48.0914 78.4915 49.766 79.2644 51.4406 79.2644C53.1152 79.2644 54.7898 78.6203 55.9491 77.3322L79.1355 54.1458C80.2948 52.9864 81.0677 51.3119 81.0677 49.6373C81.0677 47.9627 80.4237 46.2881 79.1355 45.1288L43.4542 9.06102C42.2948 7.64407 40.7491 7 38.9457 7H15.3728C11.766 7 8.93213 9.8339 8.93213 13.4407V37.0136C8.93213 38.6881 9.5762 40.3627 10.8643 41.522L14.2135 44.8712ZM20.5253 73.983C19.1084 73.4678 16.6609 64.7085 16.6609 49.5085C16.6609 48.8644 16.6609 48.0915 16.6609 47.4475L24.2609 54.9186C23.7457 66.7695 21.6847 73.4678 20.5253 73.983ZM11.5084 13.4407C11.5084 11.2508 13.183 9.57627 15.3728 9.57627H38.9457C39.9762 9.57627 41.0067 9.96271 41.6508 10.7356L77.3321 46.8034C78.105 47.5763 78.4914 48.478 78.4914 49.5085C78.4914 50.539 78.105 51.5695 77.3321 52.2136L54.1457 75.4C52.7287 76.8169 50.1525 76.8169 48.7355 75.4L26.8372 53.8881C26.966 51.4407 26.966 49.7661 26.966 49.5085C26.966 48.7356 26.966 37.6576 25.1626 29.9288C29.1559 29.0271 32.1186 25.4203 32.1186 21.1695C32.1186 16.1458 28.1253 12.1525 23.1016 12.1525C18.0779 12.1525 14.0847 16.1458 14.0847 21.1695C14.0847 23.8746 15.244 26.1932 17.0474 27.8678C17.0474 27.8678 17.1762 27.8678 17.1762 27.9966C18.5931 29.2847 20.5253 30.0576 22.5864 30.1864C23.4881 34.3085 24.3898 40.878 24.3898 49.5085C24.3898 50.1525 24.3898 50.7966 24.3898 51.4407L12.6677 39.8475C11.8948 39.0746 11.5084 38.0441 11.5084 37.0136V13.4407ZM16.6609 21.1695C16.6609 17.5627 19.4948 14.7288 23.1016 14.7288C26.7084 14.7288 29.5423 17.5627 29.5423 21.1695C29.5423 24.261 27.3525 26.8373 24.5186 27.4814C23.6169 24.5186 22.3287 22.4576 20.5253 22.4576C19.2372 22.4576 18.3355 23.4881 17.6915 24.6475C17.0474 23.6169 16.6609 22.4576 16.6609 21.1695ZM20.5253 25.0339C20.9118 25.1627 21.427 26.0644 21.9423 27.4814C21.1694 27.3525 20.3965 26.9661 19.6237 26.5797C20.1389 25.4203 20.5253 25.0339 20.5253 25.0339Z" fill="#1D1F21"/>
<path d="M60.8439 58.9118L50.5388 69.2169C50.0235 69.7322 50.0235 70.5051 50.5388 71.0203C50.7964 71.2779 51.1829 71.4067 51.4405 71.4067C51.6981 71.4067 52.0845 71.2779 52.3422 71.0203L62.6473 60.7152C63.1625 60.2 63.1625 59.4271 62.6473 58.9118C62.132 58.3966 61.3591 58.3966 60.8439 58.9118Z" fill="#1D1F21"/>
<path d="M65.9963 55.5626C66.2539 55.8202 66.6404 55.949 66.898 55.949C67.1556 55.949 67.5421 55.8202 67.7997 55.5626L72.9522 50.41C73.4675 49.8948 73.4675 49.1219 72.9522 48.6067C72.437 48.0914 71.6641 48.0914 71.1488 48.6067L65.9963 53.7592C65.481 54.2745 65.481 55.0473 65.9963 55.5626Z" fill="#1D1F21"/>
<path d="M52.3424 58.9118C51.8271 58.3966 51.0542 58.3966 50.539 58.9118L45.3864 64.0644C44.8712 64.5796 44.8712 65.3525 45.3864 65.8678C45.6441 66.1254 46.0305 66.2542 46.2881 66.2542C46.5458 66.2542 46.9322 66.1254 47.1898 65.8678L52.3424 60.7152C52.8576 60.2 52.8576 59.4271 52.3424 58.9118Z" fill="#1D1F21"/>
<path d="M55.6916 55.5628C55.9492 55.8204 56.3357 55.9492 56.5933 55.9492C56.8509 55.9492 57.2374 55.8204 57.495 55.5628L67.8001 45.2577C68.3153 44.7424 68.3153 43.9696 67.8001 43.4543C67.2848 42.9391 66.512 42.9391 65.9967 43.4543L55.6916 53.7594C55.1764 54.2747 55.1764 55.0475 55.6916 55.5628Z" fill="#1D1F21"/>
<path d="M41.1353 61.1017C41.5217 61.1017 41.7794 60.9729 42.037 60.7153L62.6472 40.1051C63.1624 39.5899 63.1624 38.817 62.6472 38.3017C62.1319 37.7865 61.359 37.7865 60.8438 38.3017L40.2336 58.9119C39.7184 59.4271 39.7184 60.2 40.2336 60.7153C40.4912 60.9729 40.7489 61.1017 41.1353 61.1017Z" fill="#1D1F21"/>
<path d="M41.1353 48.2204C41.9082 48.2204 42.4234 47.7052 42.4234 46.9323V31.4747C42.4234 30.7018 41.9082 30.1865 41.1353 30.1865C40.3624 30.1865 39.8472 30.7018 39.8472 31.4747V46.9323C39.8472 47.7052 40.3624 48.2204 41.1353 48.2204Z" fill="#1D1F21"/>
<path d="M45 44.3559C45.7729 44.3559 46.2882 43.8406 46.2882 43.0677V35.3389C46.2882 34.566 45.7729 34.0508 45 34.0508C44.2272 34.0508 43.7119 34.566 43.7119 35.3389V43.0677C43.7119 43.8406 44.2272 44.3559 45 44.3559Z" fill="#1D1F21"/>
<path d="M37.271 44.3559C38.0439 44.3559 38.5592 43.8406 38.5592 43.0677V35.3389C38.5592 34.566 38.0439 34.0508 37.271 34.0508C36.4982 34.0508 35.9829 34.566 35.9829 35.3389V43.0677C35.9829 43.8406 36.4982 44.3559 37.271 44.3559Z" fill="#1D1F21"/>
</svg>
