<svg width="90" height="90" viewBox="0 0 90 90" fill="none" xmlns="http://www.w3.org/2000/svg">
<g clip-path="url(#clip0_108_1578)">
<path d="M15.3452 31.9294C16.9187 27.6163 21.6908 25.3955 26.0039 26.969L43.3879 33.3112C47.701 34.8848 49.9219 39.6569 48.3483 43.97V43.97L15.3452 31.9294V31.9294Z" fill="#4AEC55"/>
<path d="M47.5494 49.8615C47.4544 45.3614 51.0255 41.6364 55.5256 41.5414L72.5813 41.1815C77.0814 41.0866 80.8064 44.6576 80.9014 49.1577V49.1577L47.5494 49.8615V49.8615Z" fill="#4AEC55"/>
<path d="M82.7038 46.4549L76.4906 40.2417C76.6008 39.848 76.661 39.4336 76.661 39.0052V29.4656C76.661 28.5595 75.9264 27.825 75.0204 27.825H64.0371L52.4696 3.92591C52.2302 3.43127 51.759 3.08936 51.2146 3.01504C50.6701 2.94089 50.1245 3.14399 49.7615 3.55645L38.0685 16.8388L27.172 12.8727C26.7633 12.7239 26.3121 12.7434 25.9176 12.9275C25.5233 13.1114 25.218 13.4443 25.0694 13.8533L21.8067 22.8173C21.5814 23.4359 21.4941 24.0814 21.5402 24.7188L19.5853 25.7204C15.2394 27.9471 11.9262 31.7003 10.2562 36.2888L4.05677 53.3219C2.84534 56.6499 3.00251 60.2506 4.49925 63.4606C5.99599 66.6707 8.65314 69.1054 11.9813 70.3166L29.7381 76.7797C30.675 77.1208 31.6325 77.2835 32.5731 77.2835C35.6673 77.2834 38.5791 75.5227 39.9711 72.5531L43.1095 65.8584V73.7406C43.1095 81.0517 49.0577 86.9999 56.3688 86.9999H69.6477C76.9588 86.9999 82.907 81.0517 82.907 73.7406V67.0101C85.2548 65.032 86.75 62.0728 86.75 58.7699V56.2242C86.7502 52.5339 85.3132 49.0643 82.7038 46.4549ZM63.0096 31.1068C63.012 31.1068 63.0143 31.1064 63.0168 31.1064H73.3798V34.0714H64.2261C63.3201 34.0714 62.5855 34.8059 62.5855 35.712C62.5855 36.6181 63.3201 37.3526 64.2261 37.3526H73.3798V39.0054C73.3798 39.729 72.7911 40.3177 72.0676 40.3177H53.9494C53.2257 40.3177 52.6371 39.729 52.6371 39.0054V31.1064H63.0038C63.0058 31.1064 63.0076 31.1068 63.0096 31.1068ZM50.5922 7.57876L60.3918 27.8252H50.9966C50.0907 27.8252 49.356 28.5597 49.356 29.4658V38.5665L46.8826 33.262C47.1228 32.9259 47.3198 32.5556 47.4648 32.1568L50.7275 23.1924C51.0376 22.3411 50.5986 21.3995 49.7469 21.0896L41.3793 18.044L50.5922 7.57876ZM24.8896 23.9397L25.6741 21.7842L35.6624 25.4197C35.8476 25.4871 36.0369 25.5191 36.2233 25.5191C36.8935 25.5191 37.5227 25.1054 37.765 24.4391C38.0751 23.5876 37.636 22.6462 36.7844 22.3363L26.7961 18.701L27.5912 16.5174L47.0829 23.6117L44.3813 31.0344C44.2615 31.3637 44.0205 31.6267 43.7029 31.7748C43.3849 31.923 43.0293 31.9389 42.6993 31.8186L25.6739 25.6218C25.3447 25.5021 25.0817 25.2609 24.9335 24.9433C24.7854 24.6255 24.7698 24.2693 24.8896 23.9397ZM43.1096 58.1283L37.0003 71.1604C35.9111 73.4839 33.2713 74.5732 30.8604 73.6963L13.1037 67.2334C10.5991 66.3217 8.59949 64.4895 7.4732 62.074C6.34691 59.6585 6.22846 56.9488 7.14016 54.4441L13.3394 37.4115C14.7254 33.6036 17.4749 30.4889 21.0813 28.6411L22.9307 27.6936C23.3879 28.1356 23.9362 28.4814 24.5518 28.7055L41.5771 34.9023C42.0898 35.0889 42.6211 35.1819 43.151 35.1819C43.4724 35.1819 43.7931 35.1469 44.1089 35.0789L46.8152 40.8826C47.158 41.6179 47.4422 42.3839 47.6634 43.1683C44.7204 46.6482 43.1096 51.0334 43.1096 55.615V58.1283ZM83.4691 58.7699C83.4689 62.902 80.1075 66.2635 75.9756 66.2635H73.2981C71.0206 66.2635 69.1678 64.4107 69.1678 62.1332C69.1678 59.8559 71.0206 58.0031 73.2981 58.0031H76.2502C77.1562 58.0031 77.8908 57.2684 77.8908 56.3625C77.8908 55.4565 77.1562 54.7219 76.2502 54.7219H73.2981C69.2115 54.7219 65.8866 58.0466 65.8866 62.1332C65.8866 66.2198 69.2115 69.5447 73.2981 69.5447H75.9756C77.2566 69.5447 78.4854 69.319 79.626 68.907V73.7406C79.626 79.2426 75.1498 83.7187 69.6479 83.7187H56.369C50.867 83.7187 46.3909 79.2426 46.3909 73.7406V55.6145C46.3909 51.5624 47.9093 47.6951 50.6665 44.7251L52.0819 43.2003C52.653 43.4556 53.2846 43.5986 53.9494 43.5986H72.0676C72.9624 43.5986 73.7976 43.3405 74.5046 42.8961L80.3836 48.7749C82.3733 50.7645 83.4691 53.41 83.4691 56.2239V58.7699Z" fill="#1D1F21"/>
<path d="M58.6531 34.5527C58.3463 34.2459 57.9246 34.072 57.4932 34.072C57.0617 34.072 56.6384 34.2459 56.3332 34.5527C56.0264 34.8579 55.8525 35.2795 55.8525 35.7126C55.8525 36.1441 56.0264 36.5674 56.3332 36.8726C56.6384 37.1777 57.0617 37.3533 57.4932 37.3533C57.9246 37.3533 58.3463 37.1777 58.6531 36.8726C58.9581 36.5674 59.1338 36.1441 59.1338 35.7126C59.1338 35.2795 58.9582 34.8579 58.6531 34.5527Z" fill="#1D1F21"/>
<path d="M23.7275 64.1165L23.6793 64.0991C22.8263 63.7902 21.8863 64.2312 21.578 65.083C21.2694 65.935 21.7101 66.8759 22.5619 67.1843L22.6101 67.2017C22.7947 67.2685 22.9832 67.3003 23.1686 67.3003C23.8398 67.3003 24.4698 66.8854 24.7113 66.2178C25.02 65.3659 24.5795 64.425 23.7275 64.1165Z" fill="#1D1F21"/>
<path d="M18.9828 61.2167L16.4569 60.2973C15.5995 59.9853 14.9152 59.3579 14.5295 58.531C14.1439 57.7041 14.1034 56.7767 14.4156 55.9193C14.7257 55.068 14.2867 54.1263 13.4352 53.8165C12.5839 53.5064 11.6422 53.9455 11.3324 54.797C10.7205 56.4779 10.7997 58.2967 11.5557 59.9178C12.3115 61.5391 13.6536 62.7689 15.3347 63.3805L17.8606 64.2999C18.0458 64.3674 18.2352 64.3994 18.4215 64.3994C19.0917 64.3994 19.7209 63.9856 19.9632 63.3193C20.2733 62.468 19.8343 61.5266 18.9828 61.2167Z" fill="#4AEC55"/>
<path d="M17.8739 61.986L15.348 61.0666C14.4906 60.7545 13.8063 60.1272 13.4206 59.3003C13.0351 58.4734 12.9945 57.546 13.3067 56.6886C13.6168 55.8373 13.1778 54.8956 12.3263 54.5858C11.475 54.2757 10.5333 54.7148 10.2235 55.5662C9.61157 57.2472 9.69082 59.066 10.4468 60.6871C11.2026 62.3084 12.5447 63.5382 14.2258 64.1498L16.7517 65.0692C16.937 65.1366 17.1263 65.1686 17.3127 65.1686C17.9828 65.1686 18.612 64.7549 18.8543 64.0886C19.1644 63.2373 18.7254 62.2959 17.8739 61.986Z" fill="#1D1F21"/>
</g>
<defs>
<clipPath id="clip0_108_1578">
<rect width="84" height="84" fill="white" transform="translate(3 3)"/>
</clipPath>
</defs>
</svg>
