<svg width="60" height="60" viewBox="0 0 60 60" fill="none" xmlns="http://www.w3.org/2000/svg">
<path d="M33.7242 15.1035V11.3793H35.5862C36.6104 11.3793 37.4483 10.5414 37.4483 9.51725C37.4483 8.49311 36.6104 7.65518 35.5862 7.65518H24.4138C23.3897 7.65518 22.5518 8.49311 22.5518 9.51725C22.5518 10.5414 23.3897 11.3793 24.4138 11.3793H26.2759V15.1035H33.7242Z" fill="#4AEC55"/>
<path d="M11.3794 37.4483C11.3794 47.6897 19.7587 56.069 30.0001 56.069C40.2415 56.069 48.6208 47.6897 48.6208 37.4483C48.6208 27.2069 40.2415 18.8276 30.0001 18.8276C19.7587 18.8276 11.3794 27.2069 11.3794 37.4483ZM30.0001 22.5517C38.1932 22.5517 44.8966 29.2552 44.8966 37.4483C44.8966 45.6414 38.1932 52.3448 30.0001 52.3448C21.807 52.3448 15.1035 45.6414 15.1035 37.4483C15.1035 29.2552 21.807 22.5517 30.0001 22.5517Z" fill="#4AEC55"/>
<path d="M6.72412 33.7241C6.72412 46.5724 17.1517 57 30 57C42.8483 57 53.2758 46.5724 53.2758 33.7241C53.2758 26.7414 50.1103 20.4103 45.1758 16.1276L46.7586 14.5448L47.9689 15.7552C48.1552 15.9414 48.4345 16.0345 48.6207 16.0345C48.8069 16.0345 49.0862 15.9414 49.2724 15.7552C49.6448 15.3828 49.6448 14.8241 49.2724 14.4517L45.5483 10.7276C45.1758 10.3552 44.6172 10.3552 44.2448 10.7276C43.8724 11.1 43.8724 11.6586 44.2448 12.031L45.4552 13.2414L43.7793 14.9172C41.0793 12.9621 38.0069 11.5655 34.6552 10.9138V8.58621H35.5862C37.1689 8.58621 38.3793 7.37586 38.3793 5.7931C38.3793 4.21034 37.1689 3 35.5862 3H24.4138C22.831 3 21.6207 4.21034 21.6207 5.7931C21.6207 7.37586 22.831 8.58621 24.4138 8.58621H25.3448V10.9138C21.9931 11.5655 18.9207 12.9621 16.2207 14.9172L14.5448 13.2414L15.7552 12.031C16.1276 11.6586 16.1276 11.1 15.7552 10.7276C15.3827 10.3552 14.8241 10.3552 14.4517 10.7276L10.9138 14.2655C10.5414 14.6379 10.5414 15.1966 10.9138 15.569C11.1 15.7552 11.3793 15.8483 11.5655 15.8483C11.7517 15.8483 12.031 15.7552 12.2172 15.569L13.2414 14.5448L14.8241 16.1276C9.88964 20.4103 6.72412 26.7414 6.72412 33.7241ZM51.4138 33.7241C51.4138 45.5483 41.8241 55.1379 30 55.1379C18.1758 55.1379 8.58619 45.5483 8.58619 33.7241C8.58619 21.9 18.1758 12.3103 30 12.3103C41.8241 12.3103 51.4138 21.9 51.4138 33.7241ZM27.2069 8.58621H30C30.5586 8.58621 30.931 8.21379 30.931 7.65517C30.931 7.09655 30.5586 6.72414 30 6.72414H24.4138C23.8552 6.72414 23.4827 6.35172 23.4827 5.7931C23.4827 5.23448 23.8552 4.86207 24.4138 4.86207H35.5862C36.1448 4.86207 36.5172 5.23448 36.5172 5.7931C36.5172 6.35172 36.1448 6.72414 35.5862 6.72414H33.7241C33.1655 6.72414 32.7931 7.09655 32.7931 7.65517V10.6345C31.8621 10.5414 30.931 10.4483 30 10.4483C29.0689 10.4483 28.1379 10.5414 27.2069 10.6345V8.58621Z" fill="#1D1F21"/>
<path d="M30 51.4138C20.2241 51.4138 12.3103 43.5 12.3103 33.7241C12.3103 23.9483 20.2241 16.0345 30 16.0345C30.5586 16.0345 30.931 15.6621 30.931 15.1035C30.931 14.5448 30.5586 14.1724 30 14.1724C19.2 14.1724 10.4482 22.9241 10.4482 33.7241C10.4482 44.5241 19.2 53.2759 30 53.2759C40.8 53.2759 49.5517 44.5241 49.5517 33.7241C49.5517 33.1655 49.1793 32.7931 48.6207 32.7931C48.062 32.7931 47.6896 33.1655 47.6896 33.7241C47.6896 43.5 39.7758 51.4138 30 51.4138Z" fill="#1D1F21"/>
<path d="M29.9999 17.8965C29.4413 17.8965 29.0688 18.269 29.0688 18.8276V22.5517C29.0688 23.1103 29.4413 23.4828 29.9999 23.4828C30.5585 23.4828 30.9309 23.1103 30.9309 22.5517V19.7586C38.193 20.2241 43.9654 26.2759 43.9654 33.7241C43.9654 41.1724 38.193 47.2241 30.9309 47.6896V44.8965C30.9309 44.3379 30.5585 43.9655 29.9999 43.9655C29.4413 43.9655 29.0688 44.3379 29.0688 44.8965V48.6207C29.0688 49.1793 29.4413 49.5517 29.9999 49.5517C38.7516 49.5517 45.8275 42.4759 45.8275 33.7241C45.8275 24.9724 38.7516 17.8965 29.9999 17.8965Z" fill="#1D1F21"/>
<path d="M19.7587 24.4138C20.2729 24.4138 20.6897 23.997 20.6897 23.4828C20.6897 22.9686 20.2729 22.5517 19.7587 22.5517C19.2445 22.5517 18.8276 22.9686 18.8276 23.4828C18.8276 23.997 19.2445 24.4138 19.7587 24.4138Z" fill="#1D1F21"/>
<path d="M16.0346 34.6552C16.5487 34.6552 16.9656 34.2383 16.9656 33.7241C16.9656 33.2099 16.5487 32.7931 16.0346 32.7931C15.5204 32.7931 15.1035 33.2099 15.1035 33.7241C15.1035 34.2383 15.5204 34.6552 16.0346 34.6552Z" fill="#1D1F21"/>
<path d="M19.7587 44.8966C20.2729 44.8966 20.6897 44.4797 20.6897 43.9655C20.6897 43.4513 20.2729 43.0345 19.7587 43.0345C19.2445 43.0345 18.8276 43.4513 18.8276 43.9655C18.8276 44.4797 19.2445 44.8966 19.7587 44.8966Z" fill="#1D1F21"/>
<path d="M38.0999 25.6241C37.7275 25.2517 37.1689 25.2517 36.7965 25.6241L32.6068 29.8138C31.862 29.3483 30.9309 29.069 29.9999 29.069C27.393 29.069 25.3447 31.1172 25.3447 33.7241C25.3447 36.331 27.393 38.3793 29.9999 38.3793C32.6068 38.3793 34.6551 36.331 34.6551 33.7241C34.6551 32.7931 34.3758 31.8621 33.9102 31.1172L38.0999 26.9276C38.4723 26.5552 38.4723 25.9965 38.0999 25.6241ZM32.793 33.7241C32.793 35.3069 31.5827 36.5172 29.9999 36.5172C28.4171 36.5172 27.2068 35.3069 27.2068 33.7241C27.2068 32.1414 28.4171 30.931 29.9999 30.931C30.4654 30.931 30.8378 31.0241 31.2102 31.2103L29.3482 33.0724C28.9758 33.4448 28.9758 34.0034 29.3482 34.3759C29.5344 34.5621 29.8137 34.6552 29.9999 34.6552C30.1861 34.6552 30.4654 34.5621 30.6516 34.3759L32.5137 32.5138C32.6999 32.8862 32.793 33.2586 32.793 33.7241Z" fill="#1D1F21"/>
</svg>
